<mxfile host="65bd71144e">
    <diagram id="6PAqHCmM38XjL4z28DEh" name="Page-1">
        <mxGraphModel dx="1141" dy="611" grid="1" gridSize="10" guides="1" tooltips="1" connect="1" arrows="1" fold="1" page="1" pageScale="1" pageWidth="850" pageHeight="1100" math="0" shadow="0">
            <root>
                <mxCell id="0"/>
                <mxCell id="1" parent="0"/>
                <mxCell id="3" value="&lt;h1&gt;Inicio&lt;/h1&gt;" style="rounded=0;whiteSpace=wrap;html=1;fillColor=#60a917;fontColor=#ffffff;strokeColor=#FFFFFF;" vertex="1" parent="1">
                    <mxGeometry x="140" y="130" width="564.5" height="50" as="geometry"/>
                </mxCell>
                <mxCell id="4" value="&lt;div style=&quot;line-height: 16px; font-size: 13px;&quot;&gt;&lt;span style=&quot;font-size: 13px;&quot;&gt;vector&lt;/span&gt;&lt;span style=&quot;font-size: 13px;&quot;&gt;&amp;lt;&lt;/span&gt;&lt;span style=&quot;font-size: 13px;&quot;&gt;int&lt;/span&gt;&lt;span style=&quot;font-size: 13px;&quot;&gt;&amp;gt;&lt;/span&gt; listaNumeros&lt;/div&gt;" style="rounded=0;whiteSpace=wrap;html=1;fillColor=#0B0F0A;fontColor=default;fontStyle=1;fontFamily=Helvetica;labelBackgroundColor=none;fontSize=13;" vertex="1" parent="1">
                    <mxGeometry x="140" y="180" width="564.5" height="50" as="geometry"/>
                </mxCell>
                <mxCell id="5" value="&lt;div style=&quot;line-height: 16px; font-size: 13px;&quot;&gt;&lt;span style=&quot;font-size: 13px;&quot;&gt;for&lt;/span&gt; (&lt;span style=&quot;font-size: 13px;&quot;&gt;int&lt;/span&gt; i &lt;span style=&quot;font-size: 13px;&quot;&gt;=&lt;/span&gt; &lt;span style=&quot;font-size: 13px;&quot;&gt;1&lt;/span&gt;; i &lt;span style=&quot;font-size: 13px;&quot;&gt;&amp;lt;=&lt;/span&gt; &lt;span style=&quot;font-size: 13px;&quot;&gt;3&lt;/span&gt;; &lt;span style=&quot;font-size: 13px;&quot;&gt;++&lt;/span&gt;i)&lt;/div&gt;" style="rounded=0;whiteSpace=wrap;html=1;fillColor=#6600CC;fontColor=default;fontStyle=1;fontFamily=Helvetica;labelBackgroundColor=none;fontSize=13;" vertex="1" parent="1">
                    <mxGeometry x="140" y="230" width="564.5" height="50" as="geometry"/>
                </mxCell>
                <mxCell id="34" value="" style="rounded=0;whiteSpace=wrap;html=1;labelBackgroundColor=none;labelBorderColor=default;strokeColor=none;strokeWidth=1;fontFamily=Helvetica;fontSize=13;fontColor=default;fillColor=#6600CC;direction=south;" vertex="1" parent="1">
                    <mxGeometry x="140" y="230" width="60" height="240" as="geometry"/>
                </mxCell>
                <mxCell id="8" value="&lt;h4 style=&quot;line-height: 16.8px;&quot;&gt;&lt;div style=&quot;line-height: 16px;&quot;&gt;&lt;span style=&quot;&quot;&gt;&quot;&amp;gt;&amp;gt;&amp;gt; Ingrese el valor &quot;&lt;/span&gt;&lt;/div&gt;&lt;/h4&gt;" style="rounded=0;whiteSpace=wrap;html=1;verticalAlign=middle;align=center;spacingLeft=0;fillColor=#C3FA2D;strokeColor=#FFFFFF;fontColor=#178A00;spacingTop=0;fontStyle=1;labelPosition=center;verticalLabelPosition=middle;spacing=0;labelBorderColor=default;fontFamily=Helvetica;labelBackgroundColor=none;container=0;" vertex="1" parent="1">
                    <mxGeometry x="200" y="330" width="504.549509366637" height="40" as="geometry"/>
                </mxCell>
                <mxCell id="9" value="&lt;h4&gt;&lt;div style=&quot;line-height: 16px;&quot;&gt;cin &lt;span style=&quot;&quot;&gt;&amp;gt;&amp;gt;&lt;/span&gt; numero&lt;/div&gt;&lt;/h4&gt;" style="rounded=0;whiteSpace=wrap;html=1;fillColor=#7BBA32;strokeColor=#F0F0F0;fillStyle=solid;fontColor=default;fontStyle=1;fontFamily=Helvetica;labelBackgroundColor=none;container=0;" vertex="1" parent="1">
                    <mxGeometry x="200.45049063336307" y="370" width="504.549509366637" height="50" as="geometry"/>
                </mxCell>
                <mxCell id="12" value="&lt;div style=&quot;font-size: 12px; line-height: 16px;&quot;&gt;listaNumeros.&lt;span style=&quot;&quot;&gt;push_back&lt;/span&gt;(numero)&lt;/div&gt;" style="rounded=0;whiteSpace=wrap;html=1;strokeWidth=1;strokeColor=default;fontSize=17;align=center;fillColor=#0B0F0A;fontColor=default;fontStyle=1;fontFamily=Helvetica;labelBackgroundColor=none;container=0;" vertex="1" parent="1">
                    <mxGeometry x="200" y="420" width="504.549509366637" height="50" as="geometry"/>
                </mxCell>
                <mxCell id="22" style="edgeStyle=none;html=1;exitX=0;exitY=0;exitDx=0;exitDy=0;entryX=0;entryY=1;entryDx=0;entryDy=0;endArrow=none;endFill=0;fontColor=default;fontStyle=1;fontFamily=Helvetica;labelBackgroundColor=none;" edge="1" parent="1" source="12" target="12">
                    <mxGeometry relative="1" as="geometry"/>
                </mxCell>
                <mxCell id="23" style="edgeStyle=none;html=1;exitX=1;exitY=0;exitDx=0;exitDy=0;entryX=1;entryY=1;entryDx=0;entryDy=0;endArrow=none;endFill=0;fontColor=default;fontStyle=1;fontFamily=Helvetica;labelBackgroundColor=none;fontSize=13;" edge="1" parent="1" source="12" target="12">
                    <mxGeometry relative="1" as="geometry"/>
                </mxCell>
                <mxCell id="6" value="&lt;div style=&quot;line-height: 16px;&quot;&gt;&lt;span style=&quot;&quot;&gt;int&lt;/span&gt; numero&lt;/div&gt;" style="rounded=0;whiteSpace=wrap;html=1;fillColor=#0B0F0A;fontColor=default;fontStyle=1;fontFamily=Helvetica;labelBackgroundColor=none;container=0;" vertex="1" parent="1">
                    <mxGeometry x="200" y="280" width="504.549509366637" height="50" as="geometry"/>
                </mxCell>
                <mxCell id="35" value="" style="group" vertex="1" connectable="0" parent="1">
                    <mxGeometry x="140" y="470" width="564.55" height="120" as="geometry"/>
                </mxCell>
                <mxCell id="31" value="&lt;div style=&quot;font-size: 13px; line-height: 16px;&quot;&gt;&lt;div style=&quot;font-size: 13px;&quot;&gt;&lt;span style=&quot;font-size: 13px;&quot;&gt;    &lt;/span&gt;&lt;span style=&quot;font-size: 13px;&quot;&gt;int&lt;/span&gt;&lt;span style=&quot;font-size: 13px;&quot;&gt;&amp;nbsp;c&lt;/span&gt;&lt;span style=&quot;font-size: 13px;&quot;&gt;&amp;nbsp;&lt;/span&gt;&lt;span style=&quot;font-size: 13px;&quot;&gt;=&lt;/span&gt;&lt;span style=&quot;font-size: 13px;&quot;&gt; &lt;/span&gt;&lt;span style=&quot;font-size: 13px;&quot;&gt;listaNumeros&lt;/span&gt;&lt;span style=&quot;font-size: 13px;&quot;&gt;[&lt;/span&gt;&lt;font style=&quot;font-size: 13px;&quot;&gt;2&lt;/font&gt;&lt;span style=&quot;font-size: 13px;&quot;&gt;]&lt;/span&gt;&lt;/div&gt;&lt;div style=&quot;font-size: 13px;&quot;&gt;&lt;span style=&quot;font-size: 13px;&quot;&gt;&lt;/span&gt;&lt;/div&gt;&lt;/div&gt;" style="rounded=0;whiteSpace=wrap;html=1;strokeWidth=1;fillColor=#0B0F0A;fontColor=default;fontStyle=1;fontFamily=Helvetica;labelBackgroundColor=none;fontSize=13;" vertex="1" parent="35">
                    <mxGeometry x="0.05000000000001137" y="80" width="564.5" height="40" as="geometry"/>
                </mxCell>
                <mxCell id="2" value="&lt;div style=&quot;font-size: 12px; line-height: 16px;&quot;&gt;&lt;div&gt;&lt;span style=&quot;&quot;&gt;    &lt;/span&gt;&lt;span style=&quot;&quot;&gt;int&lt;/span&gt;&lt;span style=&quot;&quot;&gt; &lt;/span&gt;&lt;span style=&quot;&quot;&gt;a&lt;/span&gt;&lt;span style=&quot;&quot;&gt; &lt;/span&gt;&lt;span style=&quot;&quot;&gt;=&lt;/span&gt;&lt;span style=&quot;&quot;&gt; &lt;/span&gt;&lt;span style=&quot;&quot;&gt;listaNumeros&lt;/span&gt;&lt;span style=&quot;&quot;&gt;[&lt;/span&gt;&lt;span style=&quot;&quot;&gt;0&lt;/span&gt;&lt;span style=&quot;&quot;&gt;]&lt;/span&gt;&lt;/div&gt;&lt;div&gt;&lt;span style=&quot;&quot;&gt;&lt;/span&gt;&lt;/div&gt;&lt;/div&gt;" style="rounded=0;whiteSpace=wrap;html=1;strokeWidth=1;fillColor=#0B0F0A;fontColor=default;fontStyle=1;fontFamily=Helvetica;labelBackgroundColor=none;container=0;" vertex="1" parent="35">
                    <mxGeometry width="564.5" height="40" as="geometry"/>
                </mxCell>
                <mxCell id="30" value="&lt;div style=&quot;font-size: 12px; line-height: 16px;&quot;&gt;&lt;div style=&quot;&quot;&gt;&lt;span style=&quot;&quot;&gt;    &lt;/span&gt;&lt;span style=&quot;&quot;&gt;int&lt;/span&gt;&lt;span style=&quot;&quot;&gt;&amp;nbsp;b&lt;/span&gt;&lt;span style=&quot;&quot;&gt;&amp;nbsp;&lt;/span&gt;&lt;span style=&quot;&quot;&gt;=&lt;/span&gt;&lt;span style=&quot;&quot;&gt; &lt;/span&gt;&lt;span style=&quot;&quot;&gt;listaNumeros&lt;/span&gt;&lt;span style=&quot;&quot;&gt;[&lt;/span&gt;&lt;font&gt;1&lt;/font&gt;&lt;span style=&quot;&quot;&gt;]&lt;/span&gt;&lt;/div&gt;&lt;div style=&quot;&quot;&gt;&lt;span style=&quot;&quot;&gt;&lt;/span&gt;&lt;/div&gt;&lt;/div&gt;" style="rounded=0;whiteSpace=wrap;html=1;strokeWidth=1;fillColor=#0B0F0A;fontColor=default;fontStyle=1;fontFamily=Helvetica;labelBackgroundColor=none;container=0;" vertex="1" parent="35">
                    <mxGeometry y="40" width="564.5" height="40" as="geometry"/>
                </mxCell>
                <mxCell id="36" style="edgeStyle=none;html=1;exitX=0;exitY=0;exitDx=0;exitDy=0;entryX=0;entryY=1;entryDx=0;entryDy=0;labelBackgroundColor=none;fontFamily=Helvetica;fontSize=13;fontColor=default;endArrow=none;endFill=0;" edge="1" parent="1" source="2" target="34">
                    <mxGeometry relative="1" as="geometry"/>
                </mxCell>
                <mxCell id="37" value="&lt;div style=&quot;line-height: 16px; font-size: 13px;&quot;&gt;(a, b, c) parametros de la funcion &lt;i&gt;promedio&lt;/i&gt;&lt;/div&gt;" style="rounded=0;whiteSpace=wrap;html=1;fillColor=#f0a30a;fontColor=#000000;fontStyle=1;fontFamily=Helvetica;labelBackgroundColor=none;fontSize=13;strokeColor=#FFFFFF;" vertex="1" parent="1">
                    <mxGeometry x="140" y="590" width="564.5" height="50" as="geometry"/>
                </mxCell>
                <mxCell id="38" value="&lt;div style=&quot;line-height: 16px; font-size: 13px;&quot;&gt;&lt;div style=&quot;font-size: 12px; line-height: 16px;&quot;&gt;&lt;span style=&quot;&quot;&gt;int&lt;/span&gt; &lt;span style=&quot;&quot;&gt;promedio&lt;/span&gt;(&lt;span style=&quot;&quot;&gt;int&lt;/span&gt;&lt;span style=&quot;&quot;&gt; &lt;/span&gt;&lt;span style=&quot;&quot;&gt;a&lt;/span&gt;,&lt;span style=&quot;&quot;&gt; &lt;/span&gt;&lt;span style=&quot;&quot;&gt;int&lt;/span&gt;&lt;span style=&quot;&quot;&gt; &lt;/span&gt;&lt;span style=&quot;&quot;&gt;b&lt;/span&gt;,&lt;span style=&quot;&quot;&gt; &lt;/span&gt;&lt;span style=&quot;&quot;&gt;int&lt;/span&gt;&lt;span style=&quot;&quot;&gt; &lt;/span&gt;&lt;span style=&quot;&quot;&gt;c&lt;/span&gt;)&lt;/div&gt;&lt;/div&gt;" style="rounded=0;whiteSpace=wrap;html=1;fillColor=#e3c800;fontColor=#000000;fontStyle=1;fontFamily=Helvetica;labelBackgroundColor=none;fontSize=13;strokeColor=#FFFFFF;" vertex="1" parent="1">
                    <mxGeometry x="140" y="640" width="564.5" height="50" as="geometry"/>
                </mxCell>
                <mxCell id="39" value="&lt;div style=&quot;line-height: 16px; font-size: 13px;&quot;&gt;&lt;div style=&quot;font-size: 12px; line-height: 16px;&quot;&gt;&lt;span style=&quot;&quot;&gt;return&lt;/span&gt; (&lt;span style=&quot;&quot;&gt;a&lt;/span&gt; &lt;span style=&quot;&quot;&gt;+&lt;/span&gt; &lt;span style=&quot;&quot;&gt;b&lt;/span&gt; &lt;span style=&quot;&quot;&gt;+&lt;/span&gt; &lt;span style=&quot;&quot;&gt;c&lt;/span&gt;) &lt;span style=&quot;&quot;&gt;/&lt;/span&gt; &lt;span style=&quot;&quot;&gt;3&lt;/span&gt;&lt;/div&gt;&lt;/div&gt;" style="rounded=0;whiteSpace=wrap;html=1;fillColor=#e3c800;fontColor=#000000;fontStyle=1;fontFamily=Helvetica;labelBackgroundColor=none;fontSize=13;strokeColor=#FFFFFF;" vertex="1" parent="1">
                    <mxGeometry x="140" y="690" width="564.5" height="50" as="geometry"/>
                </mxCell>
                <mxCell id="41" value="&lt;div style=&quot;line-height: 16px; font-size: 13px;&quot;&gt;&lt;div style=&quot;font-size: 12px; line-height: 16px;&quot;&gt;&lt;div style=&quot;line-height: 16px;&quot;&gt;&lt;span style=&quot;&quot;&gt;int&lt;/span&gt; resultado &lt;span style=&quot;&quot;&gt;=&lt;/span&gt; &lt;span style=&quot;&quot;&gt;promedio&lt;/span&gt;(a, b, c)&lt;/div&gt;&lt;/div&gt;&lt;/div&gt;" style="rounded=0;whiteSpace=wrap;html=1;fillColor=#0B0F0A;fontColor=default;fontStyle=1;fontFamily=Helvetica;labelBackgroundColor=none;fontSize=13;" vertex="1" parent="1">
                    <mxGeometry x="140" y="740" width="564.5" height="50" as="geometry"/>
                </mxCell>
                <mxCell id="42" value="&lt;div style=&quot;line-height: 16px; font-size: 13px;&quot;&gt;&lt;div style=&quot;font-size: 12px; line-height: 16px;&quot;&gt;&lt;div style=&quot;line-height: 16px;&quot;&gt;&lt;span style=&quot;&quot;&gt;&quot;El promedio es: &quot;&lt;/span&gt; &lt;span style=&quot;&quot;&gt;&amp;lt;&amp;lt;&lt;/span&gt; resultado &lt;span style=&quot;&quot;&gt;&amp;lt;&amp;lt;&lt;/span&gt;&lt;/div&gt;&lt;/div&gt;&lt;/div&gt;" style="rounded=0;whiteSpace=wrap;html=1;fillColor=#C3FA2D;fontColor=#178A00;fontStyle=1;fontFamily=Helvetica;labelBackgroundColor=none;fontSize=13;" vertex="1" parent="1">
                    <mxGeometry x="140" y="790" width="564.5" height="50" as="geometry"/>
                </mxCell>
                <mxCell id="43" value="&lt;h1&gt;FIN&lt;/h1&gt;" style="rounded=0;whiteSpace=wrap;html=1;fillColor=#60a917;fontColor=#ffffff;strokeColor=#FFFFFF;" vertex="1" parent="1">
                    <mxGeometry x="140" y="840" width="564.5" height="50" as="geometry"/>
                </mxCell>
            </root>
        </mxGraphModel>
    </diagram>
</mxfile>